<?xml version="1.0" encoding="UTF-8" standalone="no"?>
<svg
   xmlns:dc="http://purl.org/dc/elements/1.1/"
   xmlns:cc="http://creativecommons.org/ns#"
   xmlns:rdf="http://www.w3.org/1999/02/22-rdf-syntax-ns#"
   xmlns:svg="http://www.w3.org/2000/svg"
   xmlns="http://www.w3.org/2000/svg"
   xmlns:sodipodi="http://sodipodi.sourceforge.net/DTD/sodipodi-0.dtd"
   xmlns:inkscape="http://www.inkscape.org/namespaces/inkscape"
   version="1.1"
   id="svg3921"
   viewBox="0 0 86.941419 17.399999"
   height="4.9106665mm"
   width="24.5368mm"
   sodipodi:docname="logo-dev.svg"
   inkscape:version="0.92.3 (2405546, 2018-03-11)">
  <sodipodi:namedview
     pagecolor="#ffffff"
     bordercolor="#666666"
     borderopacity="1"
     objecttolerance="10"
     gridtolerance="10"
     guidetolerance="10"
     inkscape:pageopacity="0"
     inkscape:pageshadow="2"
     inkscape:window-width="1307"
     inkscape:window-height="740"
     id="namedview24"
     showgrid="false"
     inkscape:zoom="3.2349369"
     inkscape:cx="46.368757"
     inkscape:cy="9.2799996"
     inkscape:window-x="1413"
     inkscape:window-y="0"
     inkscape:window-maximized="1"
     inkscape:current-layer="svg3921" />
  <defs
     id="defs3923" />
  <metadata
     id="metadata3926">
    <rdf:RDF>
      <cc:Work
         rdf:about="">
        <dc:format>image/svg+xml</dc:format>
        <dc:type
           rdf:resource="http://purl.org/dc/dcmitype/StillImage" />
        <dc:title />
      </cc:Work>
    </rdf:RDF>
  </metadata>
  <g
     transform="translate(-7.95786,-337.94792)"
     id="layer1"
     style="fill:#ffffff">
    <g
       id="g113"
       transform="translate(-535.24214,-156.25208)"
       style="fill:#ffffff">
      <g
         id="g115"
         style="fill:#ffffff">
        <polygon
           id="polygon117"
           points="581.6,498.3 583.2,498.3 581.8,496.5 581,496.5 581,496.5 580.2,496.5 578.8,498.3 580.5,498.3 581,497.6 "
           class="white__svg"
           style="fill:#ffffff" />
        <path
           id="path119"
           d="m 565.6,498.8 2,0 3.2,7.8 -2.2,0 -0.6,-1.4 -2.9,0 -0.5,1.4 -2.2,0 3.2,-7.8 z m 1.9,4.7 -0.8,-2.2 -0.9,2.2 1.7,0 z"
           class="white__svg"
           style="fill:#ffffff" />
        <path
           id="path121"
           d="m 574.2,506.7 c -0.6,0 -1.1,-0.1 -1.6,-0.3 -0.5,-0.2 -0.9,-0.5 -1.3,-0.8 -0.4,-0.4 -0.7,-0.8 -0.9,-1.3 -0.2,-0.5 -0.3,-1 -0.3,-1.6 l 0,0 c 0,-0.6 0.1,-1.1 0.3,-1.6 0.2,-0.5 0.5,-0.9 0.8,-1.3 0.4,-0.4 0.8,-0.7 1.3,-0.9 0.5,-0.2 1,-0.3 1.6,-0.3 0.7,0 1.2,0.1 1.7,0.3 0.5,0.2 0.9,0.5 1.3,0.8 l -1.2,1.5 c -0.3,-0.2 -0.6,-0.4 -0.8,-0.5 -0.3,-0.1 -0.6,-0.2 -1,-0.2 -0.3,0 -0.5,0.1 -0.8,0.2 -0.2,0.1 -0.4,0.3 -0.6,0.5 -0.2,0.2 -0.3,0.4 -0.4,0.7 -0.1,0.3 -0.2,0.5 -0.2,0.8 l 0,0 c 0,0.3 0.1,0.6 0.2,0.9 0.1,0.3 0.2,0.5 0.4,0.7 0.2,0.2 0.4,0.3 0.7,0.4 0.3,0.1 0.5,0.2 0.8,0.2 0.5,0 0.9,-0.1 1.2,-0.3 l 0,-0.9 -1.4,0 0,-1.6 3.5,0 0,3.5 c -0.4,0.3 -0.9,0.6 -1.4,0.9 -0.6,0.1 -1.2,0.2 -1.9,0.2 z"
           class="white__svg"
           style="fill:#ffffff" />
        <polygon
           id="polygon123"
           points="580,504.8 584.1,504.8 584.1,506.6 578,506.6 578,498.8 584,498.8 584,500.7 580,500.7 580,501.8 583.7,501.8 583.7,503.5 580,503.5 "
           class="white__svg"
           style="fill:#ffffff" />
        <path
           id="path125"
           d="m 584.5,498.8 2,0 3.1,4.1 0,-4.1 2.1,0 0,7.8 -1.8,0 -3.2,-4.3 0,4.3 -2.1,0 0,-7.8 z"
           class="white__svg"
           style="fill:#ffffff" />
        <path
           id="path127"
           d="m 596,506.7 c -0.5,0 -1,-0.1 -1.5,-0.3 -0.5,-0.2 -0.9,-0.5 -1.2,-0.8 -0.3,-0.4 -0.6,-0.8 -0.8,-1.3 -0.2,-0.5 -0.3,-1 -0.3,-1.6 l 0,0 c 0,-0.6 0.1,-1.1 0.3,-1.6 0.2,-0.5 0.5,-0.9 0.8,-1.3 0.4,-0.4 0.8,-0.7 1.3,-0.9 0.5,-0.2 1,-0.3 1.6,-0.3 0.4,0 0.7,0 1.1,0.1 0.3,0.1 0.6,0.2 0.9,0.3 0.3,0.1 0.5,0.3 0.7,0.5 0.2,0.2 0.4,0.4 0.6,0.7 l -1.6,1.3 c -0.2,-0.3 -0.5,-0.5 -0.7,-0.7 -0.3,-0.2 -0.6,-0.2 -0.9,-0.2 -0.3,0 -0.5,0.1 -0.7,0.2 -0.2,0.1 -0.4,0.3 -0.6,0.4 -0.2,0.2 -0.3,0.4 -0.4,0.7 -0.1,0.3 -0.1,0.5 -0.1,0.8 l 0,0 c 0,0.3 0,0.6 0.1,0.8 0.1,0.3 0.2,0.5 0.4,0.7 0.2,0.2 0.3,0.3 0.6,0.4 0.2,0.1 0.5,0.2 0.7,0.2 0.2,0 0.4,0 0.5,-0.1 0.2,0 0.3,-0.1 0.4,-0.2 0.1,-0.1 0.3,-0.2 0.4,-0.3 0.1,-0.1 0.2,-0.2 0.4,-0.4 l 1.6,1.2 c -0.2,0.3 -0.4,0.5 -0.6,0.7 -0.2,0.2 -0.5,0.4 -0.7,0.6 -0.3,0.2 -0.6,0.3 -0.9,0.4 -0.6,0 -1,0 -1.4,0 z"
           class="white__svg"
           style="fill:#ffffff" />
        <path
           id="path129"
           d="m 599.9,498.8 2.1,0 0,7.8 -2.1,0 0,-7.8 z"
           class="white__svg"
           style="fill:#ffffff" />
        <path
           id="path131"
           d="m 605.3,498.8 2,0 3.2,7.8 -2.2,0 -0.6,-1.4 -2.9,0 -0.5,1.4 -2.2,0 3.2,-7.8 z m 1.9,4.7 -0.8,-2.2 -0.9,2.2 1.7,0 z"
           class="white__svg"
           style="fill:#ffffff" />
        <g
           id="g133"
           style="fill:#ffffff">
          <path
             id="path135"
             d="m 613.5,498.8 2.2,0 1.3,4.5 1.5,-4.5 1.8,0 1.5,4.5 1.3,-4.5 2.2,0 -2.5,7.8 -1.8,0 -1.5,-4.5 -1.5,4.5 -2,0 -2.5,-7.8 z"
             class="white__svg"
             style="fill:#ffffff" />
        </g>
        <path
           id="path137"
           d="m 630,502.7 c -0.1,-0.2 -0.2,-0.4 -0.4,-0.6 -0.2,-0.2 -0.3,-0.3 -0.6,-0.4 -0.2,-0.1 -0.4,-0.2 -0.7,-0.2 l 1.6,-1.4 0,-1.4 -4.3,0 -0.5,1.5 2.5,0 -1.5,1.4 0.3,1 0.8,0 c 0.3,0 0.6,0.1 0.8,0.2 0.2,0.1 0.3,0.3 0.3,0.5 l 0,0 c 0,0.2 -0.1,0.4 -0.2,0.5 -0.2,0.1 -0.4,0.2 -0.6,0.2 -0.3,0 -0.6,-0.1 -0.8,-0.2 -0.3,-0.1 -0.5,-0.3 -0.8,-0.6 l -1.2,1.2 c 0.3,0.4 0.7,0.7 1.2,0.9 0.5,0.2 1,0.3 1.7,0.3 0.4,0 0.7,-0.1 1,-0.2 0.3,-0.1 0.6,-0.3 0.8,-0.5 0.2,-0.2 0.4,-0.4 0.5,-0.7 0.1,-0.3 0.2,-0.6 0.2,-0.9 l 0,0 c 0.1,-0.1 0,-0.4 -0.1,-0.6 z"
           class="white__svg"
           style="fill:#ffffff" />
      </g>
      <g
         id="g139"
         style="fill:#ffffff">
        <path
           id="path141"
           d="m 558.5,506.8 0,-3.6 c 0,-0.3 -0.3,-0.6 -0.6,-0.6 -0.1,0 -0.2,0 -0.3,0.1 l 0,0 -10.1,5.8 c -0.1,0 -0.1,0.1 -0.1,0.1 -0.2,0.1 -0.3,0.3 -0.3,0.5 l 0,0 0,0 0,0 c 0,0 0,0 0,0 0,0 0,0 0,0 l 0,0 c 0,0 0,0 0,0.1 0,0.2 0.1,0.3 0.2,0.4 0,0 0.1,0 0.1,0.1 l 3.1,1.8 0.1,0 c 0,0 0.1,0 0.2,0.1 0,0 0,0 0,0 0,0 0,0 0.1,0 0,0 0,0 0,0 0.1,0 0.2,0 0.3,0 0,0 0.3,-0.2 0.3,-0.2 l 6.7,-3.9 c 0,0 0,0 0.1,0 0.2,-0.1 0.3,-0.3 0.3,-0.4 -0.1,-0.3 -0.1,-0.2 -0.1,-0.3 z m -10.2,2.3 0,0 0,0 0,0 z"
           class="white__svg"
           style="fill:#ffffff" />
        <path
           id="path143"
           d="m 550.3,505.2 0,-3.5 c 0,0 0,0 0,0 0,0 0,0 0,0 0,-0.3 -0.3,-0.6 -0.6,-0.6 -0.1,0 -0.2,0 -0.3,0.1 l -0.1,0 -5.7,3.3 c 0,0 -0.1,0 -0.1,0.1 -0.2,0.1 -0.3,0.3 -0.3,0.5 l 0,1.8 c 0,0 0,0.1 0,0.1 l 0,0 c 0,0 0,0 0,0 0,0 0,0.1 0,0.1 0,0.2 0.1,0.3 0.2,0.4 0,0 0.1,0.1 0.1,0.1 l 1.5,0.9 c 0,0 0,0 0,0 0.1,0 0.2,0.1 0.3,0.1 l 0,0 0,0 0,0 c 0,0 0,0 0,0 0,0 0,0 0,0 l 0,0 0,0 c 0,0 0,0 0.1,0 0,0 0,0 0,0 0.1,0 0.1,0 0.2,-0.1 0,0 0.1,0 0.1,0 l 4.1,-2.4 c 0.1,0 0.1,-0.1 0.2,-0.1 0.1,-0.1 0.2,-0.2 0.2,-0.4 0.1,-0.2 0.1,-0.3 0.1,-0.4 z"
           class="white__svg"
           style="fill:#ffffff" />
        <path
           id="path145"
           d="m 554.4,496.1 0,0 -3.2,-1.8 -0.1,0 c -0.1,0 -0.2,-0.1 -0.3,-0.1 -0.1,0 -0.2,0 -0.3,0.1 l -0.1,0 -6.9,4 0,0 c -0.2,0.1 -0.3,0.3 -0.3,0.5 l 0,3.6 c 0,0.3 0.3,0.6 0.6,0.6 0.1,0 0.2,0 0.3,-0.1 l 0.1,0 10.1,-5.8 0,0 c 0.2,-0.1 0.3,-0.3 0.3,-0.5 0,-0.2 -0.1,-0.4 -0.2,-0.5 z"
           class="white__svg"
           style="fill:#ffffff" />
        <path
           id="path147"
           d="m 558.2,498.2 0,0 -1.5,-0.9 -0.1,0 c -0.1,0 -0.2,-0.1 -0.3,-0.1 -0.1,0 -0.2,0 -0.3,0.1 l -0.1,0 c 0,0 -3.2,1.9 -4.4,2.6 -0.2,0.1 -0.3,0.3 -0.3,0.5 0,0 0,0 0,0 0,0.1 0,2.7 0,2.7 l 0,0 c 0,0 0,0.9 0,1 l 0,0 0,0 c 0,0.3 0.3,0.6 0.6,0.6 0.1,0 0.2,0 0.3,-0.1 l 6,-3.5 c 0.2,-0.1 0.3,-0.3 0.3,-0.5 l 0,-1.9 c 0.1,-0.2 -0.1,-0.4 -0.2,-0.5 z"
           class="white__svg"
           style="fill:#ffffff" />
      </g>
    </g>
  </g>
</svg>
